# xmcd
#
# Track frame offsets: 
#        150
#        19726
#        33520
#        52841
#        71362
#        87158
#        110540
#        125711
#        153215
#        163408
#        178739
#        199025
#        212242
#        230708
#
# Disc length: 3277 seconds
#
# Revision: 0
# Processed by: cddbd v1.5.2PL0 Copyright (c) Steve Scherf et al.
# Submitted via: ExactAudioCopy v1.0b3
#
DISCID=c10ccb0e
DTITLE=Sanseverino - Papillon
DYEAR=2015
DGENRE=Acoustic
TTITLE0=Le procès
TTITLE1=Nénette
TTITLE2=Ça démarre mal
TTITLE3=Lali
TTITLE4=La jambe de bois
TTITLE5=That loneliness is mine
TTITLE6=Les îles du Salut
TTITLE7=La ballade de bébert Célier
TTITLE8=Je me tais
TTITLE9=Le banc de Dreyfus
TTITLE10=La Cabane Bambou
TTITLE11=La danse du bagne
TTITLE12=Un costume bleu
TTITLE13=Votez papillon
EXTD=
EXTT0=
EXTT1=
EXTT2=
EXTT3=
EXTT4=
EXTT5=
EXTT6=
EXTT7=
EXTT8=
EXTT9=
EXTT10=
EXTT11=
EXTT12=
EXTT13=
PLAYORDER=
